# xmcd CD database file
#
# Track frame offsets:
#	150
#	26762
#	51099
#	75058
#	99420
#	126195
#	146869
#	177833
#	200870
#
# Disc length: 2909 seconds
#
# Revision: 3
# Processed by: cddbd v1.5.2PL0 Copyright (c) Steve Scherf et al.
# Submitted via: CDex 1.81
#
DISCID=770b5b09
DTITLE=Terumasa Hino - Trans-Blue
DYEAR=1985
DGENRE=Jazz
TTITLE0=My Funny Valentine
TTITLE1=Alone, Alone And Alone
TTITLE2=Black Orpheus
TTITLE3=My One And Only Love
TTITLE4=Green Sleeves
TTITLE5=But Beautiful
TTITLE6=Nature Boy
TTITLE7=Hold My Hand
TTITLE8=Lush Life
EXTD=YEAR: 1985
EXTT0=
EXTT1=
EXTT2=
EXTT3=
EXTT4=
EXTT5=
EXTT6=
EXTT7=
EXTT8=
PLAYORDER=
